<svg width="245" height="313" viewBox="0 0 245 313" fill="none" xmlns="http://www.w3.org/2000/svg">
<path d="M89.9045 302.265C65.8703 300.449 45.6783 282.922 39.1653 258.548C31.0456 228.221 32.4692 195.003 43.8401 165.828C59.0947 126.654 91.9431 95.5201 130.593 83.5932C162.798 73.6565 202.699 79.4558 221.726 108.512C234.137 127.467 235.201 151.932 235.291 174.941C235.388 196.937 234.946 219.283 228.93 240.382C222.915 261.481 210.556 281.431 191.998 291.633C175.303 300.816 155.65 301.238 136.808 301.458C120.31 301.65 104.703 303.382 89.9045 302.265Z" fill="#36D6AD"/>
<path d="M63.2682 121.975C71.6953 108.574 80.354 101.574 93.4698 93.2713C98.8772 89.8462 105.404 85.5237 105.103 78.9144C104.844 73.2023 99.2814 69.2883 93.9432 68.0628C81.9434 65.315 69.1731 71.694 61.5268 81.739C53.8805 91.784 50.7086 104.884 50.0521 117.701C49.8656 121.238 50.2871 125.564 53.3553 127.079C56.9694 128.863 60.7804 125.229 63.2682 121.961" fill="#36D6AD"/>
<path d="M226.473 261.55C226.853 260.85 227.184 260.124 227.465 259.378C229.151 254.972 230.83 253.746 232.52 248.705C232.741 247.912 233.079 247.158 233.521 246.467C235.177 244.127 238.839 244.166 241.206 245.768C245.774 248.858 246.098 256.117 242.812 260.572C239.305 265.321 232.927 267.168 227.123 266.927C226.831 266.917 226.549 266.816 226.317 266.638C226.084 266.459 225.912 266.213 225.823 265.932C225.315 264.224 225.768 262.838 226.473 261.55Z" fill="#36D6AD"/>
<path d="M238.888 160.926C237.395 170.96 231.798 180.443 223.339 185.988C220.817 187.635 217.832 189.273 217.061 192.209C216.567 194.07 217.113 196.05 217.614 197.893C225.574 227.678 223.986 259.246 213.078 288.061C212.348 289.96 209.515 295.676 209.515 295.676C209.515 295.676 165.773 304.754 152.505 304.897L153.092 300.553L153.749 295.665C154.754 288.138 155.946 279.496 157.263 270.216C165.037 215.253 176.909 137.781 177.672 135.326C179.991 127.833 185.053 149.344 185.256 157.193C186.668 155.311 188.454 153.748 190.499 152.606C192.544 151.463 194.804 150.766 197.132 150.559C195.349 142.201 195.698 135.948 198.127 128.046C198.166 127.915 198.242 127.798 198.346 127.71C198.45 127.622 198.578 127.567 198.712 127.552C198.847 127.536 198.984 127.562 199.104 127.624C199.225 127.687 199.325 127.784 199.392 127.903C204.129 136.182 204.688 143.416 207.508 153.307C207.981 154.959 207.819 157.148 209.415 157.738C210.389 158.087 211.464 157.658 212.411 157.235L229.341 149.694C232.204 148.423 235.07 147.143 237.937 145.853C239.354 150.744 239.678 155.892 238.888 160.926Z" fill="#FFF3DB"/>
<path d="M158.81 279.475C158.81 279.475 150.445 216.943 124.065 195.725C123.719 195.456 124.642 195.725 124.669 196.144C125.315 205.606 128.816 278.086 153.219 300.679L158.81 279.475Z" fill="#FFF3DB"/>
<path d="M238.887 160.926C234.154 158.276 231.034 153.245 229.323 149.69C232.186 148.419 235.052 147.139 237.92 145.85C239.342 150.741 239.673 155.89 238.887 160.926Z" fill="#1A2B60"/>
<path d="M194.201 171.63C194.944 173.509 194.958 175.269 194.232 175.562C193.507 175.855 192.318 174.567 191.579 172.692C190.839 170.817 190.822 169.054 191.548 168.76C192.273 168.467 193.462 169.752 194.201 171.63Z" fill="#1A2B60"/>
<path d="M203.963 166.757C204.702 168.631 204.716 170.391 203.99 170.684C203.265 170.978 202.076 169.693 201.337 167.814C200.597 165.936 200.58 164.176 201.305 163.887C202.031 163.597 203.22 164.878 203.963 166.757Z" fill="#1A2B60"/>
<path d="M220.631 185.031C220.631 185.031 211.064 196.413 202.664 185.987" stroke="#1A2B60" stroke-miterlimit="10" stroke-linecap="round"/>
<path d="M50.6601 299.562C50.6601 299.562 43.0587 219.75 69.6912 161.833L77.6035 182.859C81.6349 181.665 85.9209 181.665 89.9523 182.859L98.1756 161.833C98.1756 161.833 132.952 235.388 126.473 308.378L50.6601 299.562Z" fill="white"/>
<path d="M76.488 194.091C76.488 196.452 75.8246 198.361 75.0057 198.361C74.1868 198.361 73.5234 196.452 73.5234 194.091C73.5234 191.731 74.1868 189.821 75.0057 189.821C75.8246 189.821 76.488 191.721 76.488 194.091Z" fill="#1A2B60"/>
<path d="M86.7771 194.091C86.7771 196.452 86.1137 198.361 85.2948 198.361C84.4759 198.361 83.8125 196.452 83.8125 194.091C83.8125 191.731 84.4759 189.821 85.2948 189.821C86.1137 189.821 86.7771 191.721 86.7771 194.091Z" fill="#1A2B60"/>
<path d="M77.7029 209.604L51.4229 191.599" stroke="#1A2B60" stroke-width="0.5" stroke-miterlimit="10" stroke-linecap="round"/>
<path d="M77.7038 209.604L46.1201 217.952" stroke="#1A2B60" stroke-width="0.5" stroke-miterlimit="10" stroke-linecap="round"/>
<path d="M77.7037 209.604L52.7539 206.123" stroke="#1A2B60" stroke-width="0.5" stroke-miterlimit="10" stroke-linecap="round"/>
<path d="M81.4492 209.988L115.386 194.751" stroke="#1A2B60" stroke-width="0.5" stroke-miterlimit="10" stroke-linecap="round"/>
<path d="M81.4492 209.988L113.247 221.074" stroke="#1A2B60" stroke-width="0.5" stroke-miterlimit="10" stroke-linecap="round"/>
<path d="M81.4492 209.988L109.381 207.177" stroke="#1A2B60" stroke-width="0.5" stroke-miterlimit="10" stroke-linecap="round"/>
<path d="M99.464 256.313C111.343 258.757 124.238 255.999 134.016 248.74C138.853 245.144 142.999 240.525 145.705 235.071C148.354 229.645 149.744 223.68 149.768 217.63C149.792 211.579 148.449 205.603 145.843 200.156C144.526 197.458 142.865 194.946 140.902 192.684C138.673 190.118 136.013 187.978 133.273 185.998C127.81 182.049 121.473 178.621 117.476 173.108C115.603 170.527 114.252 167.811 113.768 164.651C113.367 161.709 114.065 158.721 115.727 156.272C119.252 150.902 125.706 148.22 130.754 144.327C133.435 142.257 135.971 139.788 137.409 136.667C138.767 133.706 139.375 130.302 138.525 127.104C138.109 125.58 137.355 124.173 136.32 122.987C135.712 122.289 134.503 122.355 133.878 122.987C133.562 123.319 133.386 123.761 133.386 124.222C133.386 124.682 133.562 125.124 133.878 125.456C134.067 125.663 134.234 125.89 134.375 126.133C134.566 126.44 134.736 126.76 134.883 127.09C134.786 126.87 134.907 127.142 134.918 127.174C134.98 127.341 135.038 127.523 135.094 127.683C135.214 128.088 135.311 128.5 135.384 128.916C135.484 129.478 135.384 128.609 135.415 129.178C135.415 129.3 135.436 129.422 135.443 129.527C135.462 129.897 135.462 130.267 135.443 130.637C135.432 131.299 135.341 131.956 135.173 132.596C134.482 135.501 132.844 137.854 130.585 139.928C125.837 144.31 119.528 146.803 115.016 151.604C112.756 154.009 110.952 156.98 110.42 160.297C109.939 163.587 110.396 166.946 111.737 169.983C113.07 173.052 114.954 175.846 117.293 178.223C119.711 180.743 122.589 182.817 125.454 184.797C128.318 186.777 131.162 188.582 133.829 190.733C135.11 191.757 136.324 192.864 137.464 194.046C137.925 194.53 138.37 195.029 138.801 195.544C139.33 196.172 139.551 196.462 139.979 197.059C140.824 198.239 141.59 199.475 142.274 200.757C142.888 201.907 143.433 203.094 143.904 204.311C144.928 206.99 145.635 209.781 146.012 212.628C145.978 212.369 146.012 212.673 146.012 212.711C146.033 212.893 146.057 213.061 146.078 213.26C146.116 213.609 146.15 213.989 146.178 214.356C146.238 215.089 146.275 215.825 146.289 216.563C146.322 217.974 146.279 219.387 146.157 220.794C146.126 221.143 146.088 221.527 146.047 221.894C146.026 222.076 146.005 222.243 145.981 222.442C146.019 222.163 145.964 222.55 145.957 222.617C145.846 223.376 145.713 224.13 145.556 224.879C145.271 226.259 144.909 227.622 144.471 228.961C144.26 229.603 144.032 230.235 143.78 230.864C143.528 231.492 143.355 231.911 143.013 232.634C141.202 236.493 138.682 239.969 135.588 242.878C133.544 244.839 131.28 246.55 128.84 247.975C126.426 249.436 123.862 250.626 121.194 251.526C115.786 253.392 110.049 254.077 104.36 253.534C103.028 253.414 101.705 253.213 100.397 252.933C99.9556 252.821 99.4885 252.885 99.0928 253.112C98.6971 253.339 98.4031 253.712 98.272 254.152C98.037 255.014 98.5587 256.111 99.4778 256.299L99.464 256.313Z" fill="white"/>
<path d="M166.363 72.5425C166.363 72.5425 227.202 70.0426 237.422 128.249" stroke="#36D6AD" stroke-width="2" stroke-miterlimit="10" stroke-linecap="round"/>
<path d="M120.333 34.7473C116.624 33.7909 113.186 31.9752 110.291 29.4439C107.397 26.9127 105.125 23.7353 103.655 20.1634C102.729 17.8625 102.156 15.3102 102.733 12.8976C103.31 10.485 105.289 8.29584 107.739 8.12127C109.622 7.9851 111.436 9.03252 112.694 10.4536C113.952 11.8746 114.767 13.6413 115.531 15.3766C114.287 12.2342 113.026 8.86494 113.647 5.53407C114.269 2.2032 117.617 -0.837877 120.81 0.209567C123.574 1.11386 124.739 4.34697 125.357 7.19252C127.351 16.4205 127.289 26.5528 122.641 34.7438" fill="#FC7071"/>
<path d="M148.425 38.4761C146.603 36.4941 145.263 34.1105 144.511 31.5143C143.759 28.9181 143.615 26.1805 144.092 23.5186C144.41 21.8113 145.028 20.0935 146.272 18.8959C147.516 17.6983 149.503 17.1711 151.006 18.0055C152.163 18.648 152.837 19.9573 153.041 21.2736C153.245 22.5898 153.041 23.9341 152.865 25.2504C153.314 22.925 153.832 20.467 155.449 18.7457C157.066 17.0244 160.169 16.5252 161.668 18.3617C162.947 19.9468 162.425 22.2966 161.717 24.2134C159.426 30.4003 155.594 36.3323 149.79 39.3664" fill="#FCF0E3"/>
<path d="M137.925 65.1474C136.226 66.0609 134.339 66.5621 132.415 66.6112C130.492 66.6603 128.583 66.256 126.84 65.4302C125.728 64.8926 124.657 64.1419 124.076 63.0455C123.496 61.9492 123.482 60.4618 124.335 59.5541C124.684 59.2273 125.1 58.9837 125.554 58.8411C126.008 58.6985 126.488 58.6606 126.958 58.7301C127.896 58.8757 128.808 59.1654 129.66 59.589C128.146 58.8418 126.55 58.0248 125.666 56.5724C124.781 55.1199 125.006 52.8469 126.543 52.1451C127.87 51.5376 129.39 52.3372 130.575 53.1926C134.407 55.9404 137.783 59.7286 138.799 64.3653" fill="#36D6AD"/>
<path d="M30.0596 189C26.0887 195 11.2305 240.5 45.082 287.089" stroke="#36D6AD" stroke-width="2" stroke-miterlimit="10" stroke-linecap="round"/>
</svg>
